<?xml version="1.0" encoding="utf-8"?>
<!-- Generator: Adobe Illustrator 27.5.0, SVG Export Plug-In . SVG Version: 6.00 Build 0)  -->
<svg version="1.1" xmlns="http://www.w3.org/2000/svg" xmlns:xlink="http://www.w3.org/1999/xlink" x="0px" y="0px"
	 viewBox="0 0 750 500" style="enable-background:new 0 0 750 500;" xml:space="preserve">
<g id="BACKGROUND">
	<rect style="fill:#FFFFFF;" width="750" height="500"/>
</g>
<g id="OBJECTS">
	<g>
		<g>
			
				<ellipse transform="matrix(0.1641 -0.9864 0.9864 0.1641 92.7519 412.0012)" style="fill:#F4E6E1;" cx="289.476" cy="151.273" rx="76.706" ry="76.706"/>
			<g>
				<defs>
					
						<ellipse id="SVGID_1_" transform="matrix(0.1641 -0.9864 0.9864 0.1641 92.7519 412.0012)" cx="289.476" cy="151.273" rx="76.706" ry="76.706"/>
				</defs>
				<clipPath id="SVGID_00000050645256313415890280000016060891131407133059_">
					<use xlink:href="#SVGID_1_"  style="overflow:visible;"/>
				</clipPath>
				<g style="clip-path:url(#SVGID_00000050645256313415890280000016060891131407133059_);">
					<path style="fill:#D76A40;" d="M319.894,137.193c0.62-8.552,7.124-32.34-6.915-30.725
						c-1.818-12.387-13.423-18.656-24.605-18.084c-30.329,1.551-35.021,29.256-30.267,48.808
						c7.696,20.499,47.245,4.473,61.783,0.033C319.892,137.215,319.893,137.204,319.894,137.193z"/>
					<g>
						<path style="fill:#5B4850;" d="M356.294,229.574H222.658c0,0,4.052-22.413,13.237-35.315
							c9.185-12.91,43.273-17.617,43.273-17.617l10.308,1.59l10.308-1.59c0,0,34.099,4.707,43.284,17.617
							C352.253,207.161,356.294,229.574,356.294,229.574z"/>
						<path style="fill:#FFFFFF;" d="M271.25,177.605c9.08-2.09,16.81-1.48,18.05-1.36c0,0,0,0,0.01,0
							c1.24-0.12,8.97-0.73,18.05,1.36c0.865,8.13-2.492,18.369-17.884,18.416C273.893,196.069,270.37,185.835,271.25,177.605z"/>
						<g>
							<path style="fill:#F1B69A;" d="M289.254,188.024L289.254,188.024c-5,0-9.052-4.053-9.052-9.053v-17.292h18.105v17.292
								C298.306,183.971,294.254,188.024,289.254,188.024z"/>
							<path style="fill:#150A08;" d="M298.307,160.666v10.617c0,0-3.04,5.286-9.053,5.286c-4.831,0-9.051-4.583-9.051-4.583v-11.32
								H298.307z"/>
							<g>
								<path style="fill:#F1B69A;" d="M263.926,141.092c-4.895-7.437-10.573-2.659-10.573,2.576c0,7.581,8.223,14.11,12.922,8.669
									C270.975,146.895,263.926,141.092,263.926,141.092z"/>
								<path style="fill:none;stroke:#E07E61;stroke-linecap:round;stroke-miterlimit:10;" d="M262.856,144.527
									c-3.046-5.694-7.257-0.381-5.649,1.728"/>
								<path style="fill:#F1B69A;" d="M312.827,141.092c4.895-7.437,10.573-2.659,10.573,2.576c0,7.581-8.223,14.11-12.922,8.669
									C305.779,146.895,312.827,141.092,312.827,141.092z"/>
								<path style="fill:none;stroke:#E07E61;stroke-linecap:round;stroke-miterlimit:10;" d="M313.897,144.527
									c3.046-5.694,7.257-0.381,5.649,1.728"/>
							</g>
							<path style="fill:#F1B69A;" d="M288.354,170.295c-19.343-0.008-30.781-21.145-26.259-42.848
								c3.725-17.884,48.838-17.877,52.563,0C319.179,149.151,307.706,170.303,288.354,170.295z"/>
							<path style="fill:#D76A40;" d="M316.899,134.562c0,0-0.25,19.48-7.52,28.59c-7.261,9.11-20.124,9.699-20.124,9.699
								s-14.413-0.589-21.674-9.699c-7.261-9.11-7.52-28.59-7.52-28.59l1.008-1.96c0.736,5.222,4.153,18.753,8.259,21.743
								c6.725-2.25,11.758-2.501,19.438-2.501c8.211,0,13.445,0.883,19.151,1.599c3.305-2.909,7.308-16.084,7.974-20.841
								L316.899,134.562z"/>
							<path style="opacity:0.5;fill:#F1B69A;" d="M285.785,148.569c1.991,0.95,6.475-1.157,6.568,0
								c0.093,1.157-2.38,2.181-3.284,2.181C288.164,150.75,285.785,148.569,285.785,148.569z"/>
							<path style="fill:none;stroke:#E07E61;stroke-linecap:round;stroke-miterlimit:10;" d="M285.848,142.737
								c-2.823,6.102,1.398,7.286,2.528,7.433"/>
							<path style="fill:#FFFFFF;" d="M281.34,154.346c7.404,0.796,12.354-0.018,15.867,0.102c0,0-4.435,6.264-9.649,5.018
								C282.345,158.22,281.34,154.346,281.34,154.346z"/>
							<path style="fill:#D76A40;" d="M280.727,126.107c-1.209-2.699-8.292-1.465-9.293,0.457c-1.001,1.922,2.313,2.462,4.773,2.341
								C278.667,128.784,281.496,127.825,280.727,126.107z"/>
							<path style="fill:#D76A40;" d="M296.026,126.107c1.209-2.699,8.292-1.465,9.293,0.457c1.001,1.922-2.313,2.462-4.773,2.341
								C298.087,128.784,295.257,127.825,296.026,126.107z"/>
							<path style="opacity:0.5;fill:#F1B69A;" d="M286.458,161.287c2.708,0.007,6.591-1.402,7.192,0
								c0.601,1.402-2.705,4.205-4.756,4.004C286.843,165.091,283.366,161.279,286.458,161.287z"/>
							<path style="fill:#150A08;" d="M275.609,136.511c0,1.075,0.871,1.946,1.946,1.946c1.075,0,1.946-0.871,1.946-1.946
								c0-1.075-0.871-1.946-1.946-1.946C276.481,134.565,275.609,135.436,275.609,136.511z"/>
							<circle style="fill:#150A08;" cx="299.198" cy="136.511" r="1.946"/>
						</g>
					</g>
					<path style="fill:#D76A40;" d="M273.557,114.379l4.507-1.093c0,0-5.869,9.42,6.635,11.227
						c12.504,1.807,25.53-6.658,15.145-10.976l3.775-0.251l-9.084-6.968L273.557,114.379z"/>
				</g>
			</g>
		</g>
		<g>
			
				<ellipse transform="matrix(0.1641 -0.9864 0.9864 0.1641 378.7102 749.4591)" style="fill:#F4DDD4;" cx="631.571" cy="151.273" rx="76.706" ry="76.706"/>
			
				<ellipse transform="matrix(0.1641 -0.9864 0.9864 0.1641 378.7102 749.4591)" style="fill:#F4E6E1;" cx="631.571" cy="151.273" rx="76.706" ry="76.706"/>
			<g>
				<defs>
					
						<ellipse id="SVGID_00000126310355100831764330000009089209563133307832_" transform="matrix(0.1641 -0.9864 0.9864 0.1641 378.7102 749.4591)" cx="631.571" cy="151.273" rx="76.706" ry="76.706"/>
				</defs>
				<clipPath id="SVGID_00000182510819860806164250000003296899722858687383_">
					<use xlink:href="#SVGID_00000126310355100831764330000009089209563133307832_"  style="overflow:visible;"/>
				</clipPath>
				<g style="clip-path:url(#SVGID_00000182510819860806164250000003296899722858687383_);">
					<path style="fill:#5B4852;" d="M661.996,138.457c8.148-14.751,4.972-39.813-12.825-46.034
						c-18.482-6.461-34.394-0.99-35.825,8.924c0,0-9.777-2.294-16.255,8.17c-6.478,10.464-1.823,28.056,7.861,38.695
						C614.636,158.851,655.369,150.454,661.996,138.457z"/>
					<g>
						<path style="fill:#D66572;" d="M698.39,229.574H564.753c0,0,4.052-22.413,13.237-35.315
							c9.185-12.91,43.273-17.617,43.273-17.617l10.308,1.59l10.308-1.59c0,0,34.099,4.707,43.284,17.617
							C694.348,207.161,698.39,229.574,698.39,229.574z"/>
						<g>
							<defs>
								<path id="SVGID_00000058585145714807480370000002172397396312402325_" d="M698.39,229.574H564.753
									c0,0,4.052-22.413,13.237-35.315c9.185-12.91,43.273-17.617,43.273-17.617l10.308,1.59l10.308-1.59
									c0,0,34.099,4.707,43.284,17.617C694.348,207.161,698.39,229.574,698.39,229.574z"/>
							</defs>
							<clipPath id="SVGID_00000093152004216822794930000004973680675227645863_">
								<use xlink:href="#SVGID_00000058585145714807480370000002172397396312402325_"  style="overflow:visible;"/>
							</clipPath>
							<g style="clip-path:url(#SVGID_00000093152004216822794930000004973680675227645863_);">
								<polygon style="fill:#E28693;" points="566.006,184.756 704.956,184.756 704.956,196.88 555.984,196.88 555.984,184.756 
																	"/>
								<polygon style="fill:#E28693;" points="566.006,203.159 704.956,203.159 704.956,215.283 555.984,215.283 555.984,203.159 
																	"/>
								<polygon style="fill:#E28693;" points="566.006,221.561 704.956,221.561 704.956,233.686 555.984,233.686 555.984,221.561 
																	"/>
							</g>
						</g>
						<g>
							<path style="fill:#F1B69A;" d="M611.597,178.339c0,0,6.206,15.425,20.151,15.425s19.21-15.425,19.21-15.425
								S632.093,171.064,611.597,178.339z"/>
							<path style="fill:#F1B69A;" d="M631.349,188.024L631.349,188.024c-5,0-9.052-4.053-9.052-9.053v-17.292h18.105v17.292
								C640.402,183.971,636.349,188.024,631.349,188.024z"/>
							<path style="fill:#150A08;" d="M640.402,159.678v10.617c0,0-3.04,5.286-9.053,5.286c-4.831,0-9.051-4.583-9.051-4.583v-11.32
								H640.402z"/>
							<g>
								<path style="fill:#F1B69A;" d="M606.022,141.092c-4.895-7.437-10.573-2.659-10.573,2.576c0,7.581,8.223,14.11,12.922,8.669
									C613.07,146.895,606.022,141.092,606.022,141.092z"/>
								<path style="fill:none;stroke:#E07E61;stroke-linecap:round;stroke-miterlimit:10;" d="M604.951,144.527
									c-3.046-5.694-7.257-0.381-5.649,1.728"/>
								<path style="fill:#F1B69A;" d="M654.922,141.092c4.895-7.437,10.572-2.659,10.572,2.576c0,7.581-8.223,14.11-12.922,8.669
									C647.874,146.895,654.922,141.092,654.922,141.092z"/>
								<path style="fill:none;stroke:#E07E61;stroke-linecap:round;stroke-miterlimit:10;" d="M655.992,144.527
									c3.046-5.694,7.257-0.381,5.649,1.728"/>
							</g>
							<path style="fill:#F1B69A;" d="M630.449,170.295c-19.343-0.008-30.781-21.145-26.259-42.848
								c3.725-17.884,48.838-17.877,52.563,0C661.275,149.151,649.801,170.303,630.449,170.295z"/>
							<path style="fill:#F1B69A;" d="M637.993,120.109c6.789-11.996-6.889-20.431-13.044-16.794
								c-6.155,3.636-7.45,7.69-7.244,12.482c0,0-2.367-8.377-7.719-4.512c-5.351,3.866-3.504,14.617-3.504,14.617l3.504,1.885
								L637.993,120.109z"/>
							<path style="opacity:0.5;fill:#F1B69A;" d="M627.88,148.569c1.991,0.95,6.475-1.157,6.568,0
								c0.093,1.157-2.379,2.181-3.284,2.181C630.26,150.75,627.88,148.569,627.88,148.569z"/>
							<path style="fill:none;stroke:#E07E61;stroke-linecap:round;stroke-miterlimit:10;" d="M627.944,142.737
								c-2.823,6.102,1.398,7.286,2.528,7.433"/>
							<path style="fill:none;stroke:#150A08;stroke-linecap:round;stroke-miterlimit:10;" d="M623.719,153.487
								c7.467,1.434,13.388,0.239,15.779-1.674"/>
							<path style="fill:#5B4852;" d="M622.822,126.107c-1.209-2.699-8.292-1.465-9.293,0.457c-1.002,1.922,2.313,2.462,4.773,2.341
								C620.762,128.784,623.592,127.825,622.822,126.107z"/>
							<path style="fill:#5B4852;" d="M638.122,126.107c1.209-2.699,8.292-1.465,9.293,0.457c1.002,1.922-2.313,2.462-4.773,2.341
								C640.182,128.784,637.352,127.825,638.122,126.107z"/>
							<path style="opacity:0.5;fill:#F1B69A;" d="M628.73,157.167c2.708,0.007,6.591-1.402,7.192,0
								c0.601,1.402-2.705,4.205-4.756,4.005C629.114,160.972,625.637,157.159,628.73,157.167z"/>
							<path style="fill:#150A08;" d="M617.705,136.511c0,1.075,0.871,1.946,1.946,1.946c1.075,0,1.946-0.871,1.946-1.946
								c0-1.075-0.871-1.946-1.946-1.946C618.576,134.565,617.705,135.436,617.705,136.511z"/>
							<path style="fill:#150A08;" d="M643.239,136.511c0,1.075-0.871,1.946-1.946,1.946c-1.075,0-1.946-0.871-1.946-1.946
								c0-1.075,0.871-1.946,1.946-1.946C642.368,134.565,643.239,135.436,643.239,136.511z"/>
						</g>
					</g>
					<path style="fill:#5B4852;" d="M617.705,115.797c0.71-9.853,14.491-3.376,22.133,4.849c8.993,9.677,16.08,11.492,22.157,7.141
						c6.077-4.351-1.873-24.002-20.702-28.321C622.464,95.147,615.105,108.914,617.705,115.797z"/>
					<path style="fill:#5B4852;" d="M617.705,115.797c-3.609-7.153-12.753,6.224-14.5,18.768c-1.05,7.543-2.346-2.347-4.257-4.242
						c-1.91-1.895-1.618-16.735,9.117-20.06C618.8,106.939,617.705,115.797,617.705,115.797z"/>
				</g>
			</g>
		</g>
		<g>
			
				<ellipse transform="matrix(0.1641 -0.9864 0.9864 0.1641 235.731 580.7301)" style="fill:#F4E6E1;" cx="460.524" cy="151.273" rx="76.706" ry="76.706"/>
			<g>
				<defs>
					
						<ellipse id="SVGID_00000168806128045815713590000009580526347230558890_" transform="matrix(0.1641 -0.9864 0.9864 0.1641 235.731 580.7301)" cx="460.524" cy="151.273" rx="76.706" ry="76.706"/>
				</defs>
				<clipPath id="SVGID_00000078762314423572394500000015533296417321053332_">
					<use xlink:href="#SVGID_00000168806128045815713590000009580526347230558890_"  style="overflow:visible;"/>
				</clipPath>
				<g style="clip-path:url(#SVGID_00000078762314423572394500000015533296417321053332_);">
					<path style="fill:#D88D48;" d="M431.67,140.348c-15.9-20.321-2.42-42.049,9.818-48.898c17.935-10.037,48.05-6.97,51.971,0.684
						c3.409,6.656-2.511,12.618-2.511,12.618s9.01,2.393,8.674,10.515c-0.336,8.122-10.515,12.127-10.515,12.127
						s10.484,6.44-8.677,18.764C461.269,158.483,435.076,144.702,431.67,140.348z"/>
					<g>
						<path style="fill:#9FC9C1;" d="M527.342,229.574H393.706c0,0,4.052-22.413,13.237-35.315
							c9.185-12.91,43.273-17.617,43.273-17.617l10.308,1.59l10.308-1.59c0,0,34.099,4.707,43.284,17.617
							C523.3,207.161,527.342,229.574,527.342,229.574z"/>
						<path style="fill:#79B2A7;" d="M493.53,180.982c-1.551,11.407-11.184,18.24-19.612,22.093
							c-8.383,3.833-17.973,3.833-26.356-0.001c-8.425-3.853-18.057-10.686-19.613-22.092l5.95-1.11
							c1.341,9.84,10.025,15.521,17.158,18.571c6.192,2.648,13.172,2.648,19.364,0.001c7.135-3.05,15.822-8.731,17.157-18.572
							L493.53,180.982z"/>
						<path style="fill:#F1B69A;" d="M487.58,179.872c-1.392,10.258-10.771,15.996-18.055,18.945
							c-5.638,2.283-11.931,2.283-17.569-0.001c-7.281-2.95-16.659-8.688-18.056-18.945c10.4-3.43,24.76-4.91,25.01-4.93
							c1.18-0.08,1.83-0.09,1.83-0.09s0.65,0.01,1.83,0.09C462.82,174.962,477.18,176.442,487.58,179.872z"/>
						<g>
							<path style="fill:#F1B69A;" d="M460.302,188.024L460.302,188.024c-5,0-9.053-4.053-9.053-9.053v-17.292h18.105v17.292
								C469.354,183.971,465.301,188.024,460.302,188.024z"/>
							<path style="fill:#150A08;" d="M469.355,159.678v10.617c0,0-3.04,5.286-9.053,5.286c-4.831,0-9.051-4.583-9.051-4.583v-11.32
								H469.355z"/>
							<g>
								<path style="fill:#F1B69A;" d="M434.974,141.092c-4.895-7.437-10.572-2.659-10.572,2.576c0,7.581,8.223,14.11,12.922,8.669
									C442.022,146.895,434.974,141.092,434.974,141.092z"/>
								<path style="fill:none;stroke:#E07E61;stroke-linecap:round;stroke-miterlimit:10;" d="M433.904,144.527
									c-3.046-5.694-7.257-0.381-5.649,1.728"/>
								<path style="fill:#F1B69A;" d="M483.875,141.092c4.895-7.437,10.572-2.659,10.572,2.576c0,7.581-8.223,14.11-12.922,8.669
									C476.826,146.895,483.875,141.092,483.875,141.092z"/>
								<path style="fill:none;stroke:#E07E61;stroke-linecap:round;stroke-miterlimit:10;" d="M484.945,144.527
									c3.046-5.694,7.257-0.381,5.649,1.728"/>
							</g>
							<path style="fill:#F1B69A;" d="M459.401,170.295c-19.343-0.008-30.781-21.145-26.259-42.848
								c3.725-17.884,48.838-17.877,52.563,0C490.227,149.151,478.754,170.303,459.401,170.295z"/>
							<path style="opacity:0.5;fill:#F1B69A;" d="M456.832,148.569c1.991,0.95,6.475-1.157,6.568,0
								c0.093,1.157-2.38,2.181-3.284,2.181C459.212,150.75,456.832,148.569,456.832,148.569z"/>
							<path style="fill:none;stroke:#E07E61;stroke-linecap:round;stroke-miterlimit:10;" d="M456.896,142.737
								c-2.822,6.102,1.398,7.286,2.528,7.433"/>
							<path style="fill:none;stroke:#150A08;stroke-linecap:round;stroke-miterlimit:10;" d="M452.671,153.487
								c7.467,1.434,13.388,0.239,15.779-1.674"/>
							<path style="fill:#D88D48;" d="M451.775,126.107c-1.209-2.699-8.292-1.465-9.293,0.457c-1.001,1.922,2.313,2.462,4.773,2.341
								C449.714,128.784,452.544,127.825,451.775,126.107z"/>
							<path style="fill:#D88D48;" d="M466.791,128.294c1.209-2.699,8.292-1.465,9.293,0.457c1.001,1.922-2.313,2.462-4.773,2.341
								C468.852,130.97,466.022,130.012,466.791,128.294z"/>
							<path style="opacity:0.5;fill:#F1B69A;" d="M457.682,157.167c2.708,0.007,6.591-1.402,7.192,0
								c0.601,1.402-2.705,4.205-4.756,4.005C458.067,160.972,454.59,157.159,457.682,157.167z"/>
							<path style="fill:#150A08;" d="M446.657,136.511c0,1.075,0.871,1.946,1.946,1.946c1.075,0,1.946-0.871,1.946-1.946
								c0-1.075-0.871-1.946-1.946-1.946C447.528,134.565,446.657,135.436,446.657,136.511z"/>
							<path style="fill:#150A08;" d="M472.191,136.511c0,1.075-0.871,1.946-1.946,1.946c-1.075,0-1.946-0.871-1.946-1.946
								c0-1.075,0.871-1.946,1.946-1.946C471.32,134.565,472.191,135.436,472.191,136.511z"/>
						</g>
					</g>
					<path style="fill:#D88D48;" d="M446.221,107.879c-0.469,12.381,27.761,19.03,35.248,17.887
						c7.487-1.143,9.736-10.889-2.01-18.886C467.713,98.882,446.429,102.381,446.221,107.879z"/>
				</g>
			</g>
		</g>
		<g>
			
				<ellipse transform="matrix(0.1657 -0.9862 0.9862 0.1657 -50.381 242.9899)" style="fill:#F4E6E1;" cx="118.428" cy="151.273" rx="76.706" ry="76.706"/>
			<g>
				<defs>
					
						<ellipse id="SVGID_00000115500222058123207740000005324389661863971764_" transform="matrix(0.1657 -0.9862 0.9862 0.1657 -50.381 242.9899)" cx="118.428" cy="151.273" rx="76.706" ry="76.706"/>
				</defs>
				<clipPath id="SVGID_00000012473306472401954670000014063081390266852490_">
					<use xlink:href="#SVGID_00000115500222058123207740000005324389661863971764_"  style="overflow:visible;"/>
				</clipPath>
				<g style="clip-path:url(#SVGID_00000012473306472401954670000014063081390266852490_);">
					<path style="fill:#5B4852;" d="M147.411,137.268c10.556-19.008,2.195-29.905-4.562-26.34c0,0-1.023-11.787-16.494-18.893
						c-17.901-8.222-41.023-1.813-45.531,10.573c-4.159,11.429,3.269,16.937,3.269,16.937s-4.598,8.214,3.268,20.503
						C95.228,152.337,142.685,145.779,147.411,137.268z"/>
					<path style="fill:#D88D48;" d="M185.247,229.574H51.61c0,0,4.052-22.413,13.237-35.315
						c9.185-12.91,43.273-17.617,43.273-17.617l10.308,1.59l10.308-1.59c0,0,34.099,4.707,43.284,17.617
						C181.205,207.161,185.247,229.574,185.247,229.574z"/>
					<path style="fill:#FFFFFF;" d="M108.121,176.642l-13.199,2.475c0,0,3.043,14.929,15.11,22.392l8.194-10.041v-10.771
						L108.121,176.642z"/>
					<path style="fill:#FFFFFF;" d="M127.823,176.642l13.199,2.475c0,0-3.043,14.929-15.11,22.392l-8.194-10.041v-10.771
						L127.823,176.642z"/>
					<g>
						<path style="fill:#F1B69A;" d="M118.206,188.024L118.206,188.024c-5,0-9.052-4.053-9.052-9.053v-17.292h18.105v17.292
							C127.259,183.971,123.206,188.024,118.206,188.024z"/>
						<path style="fill:#150A08;" d="M127.259,159.678v10.617c0,0-3.04,5.286-9.053,5.286c-4.831,0-9.051-4.583-9.051-4.583v-11.32
							H127.259z"/>
						<g>
							<path style="fill:#F1B69A;" d="M92.879,141.092c-4.895-7.437-10.572-2.659-10.573,2.576c0,7.581,8.223,14.11,12.922,8.669
								C99.927,146.895,92.879,141.092,92.879,141.092z"/>
							<path style="fill:none;stroke:#E07E61;stroke-linecap:round;stroke-miterlimit:10;" d="M91.809,144.527
								c-3.046-5.694-7.257-0.381-5.649,1.728"/>
							<path style="fill:#F1B69A;" d="M141.779,141.092c4.895-7.437,10.572-2.659,10.572,2.576c0,7.581-8.223,14.11-12.922,8.669
								C134.731,146.895,141.779,141.092,141.779,141.092z"/>
							<path style="fill:none;stroke:#E07E61;stroke-linecap:round;stroke-miterlimit:10;" d="M142.85,144.527
								c3.046-5.694,7.257-0.381,5.649,1.728"/>
						</g>
						<path style="fill:#F1B69A;" d="M117.306,170.295c-19.343-0.008-30.781-21.145-26.259-42.848
							c3.725-17.884,48.838-17.877,52.563,0C148.132,149.151,136.658,170.303,117.306,170.295z"/>
						<path style="opacity:0.5;fill:#F1B69A;" d="M114.737,148.569c1.991,0.95,6.475-1.157,6.568,0
							c0.093,1.157-2.38,2.181-3.284,2.181C117.117,150.75,114.737,148.569,114.737,148.569z"/>
						<path style="fill:none;stroke:#E07E61;stroke-linecap:round;stroke-miterlimit:10;" d="M114.801,142.737
							c-2.823,6.102,1.398,7.286,2.528,7.433"/>
						<path style="fill:none;stroke:#150A08;stroke-linecap:round;stroke-miterlimit:10;" d="M110.576,153.487
							c7.467,1.434,13.388,0.239,15.779-1.674"/>
						<path style="fill:#150A08;" d="M109.679,126.107c-1.209-2.699-8.292-1.465-9.293,0.457c-1.002,1.922,2.313,2.462,4.773,2.341
							C107.619,128.784,110.449,127.825,109.679,126.107z"/>
						<path style="fill:#150A08;" d="M124.979,126.107c1.209-2.699,8.292-1.465,9.293,0.457c1.001,1.922-2.313,2.462-4.773,2.341
							C127.039,128.784,124.209,127.825,124.979,126.107z"/>
						<path style="opacity:0.5;fill:#F1B69A;" d="M115.587,157.167c2.708,0.007,6.591-1.402,7.192,0
							c0.601,1.402-2.705,4.205-4.756,4.005C115.971,160.972,112.494,157.159,115.587,157.167z"/>
						<path style="fill:#150A08;" d="M104.562,136.511c0,1.075,0.871,1.946,1.946,1.946c1.075,0,1.946-0.871,1.946-1.946
							c0-1.075-0.871-1.946-1.946-1.946C105.433,134.565,104.562,135.436,104.562,136.511z"/>
						<path style="fill:#150A08;" d="M130.096,136.511c0,1.075-0.871,1.946-1.946,1.946c-1.075,0-1.946-0.871-1.946-1.946
							c0-1.075,0.871-1.946,1.946-1.946C129.225,134.565,130.096,135.436,130.096,136.511z"/>
					</g>
					<path style="fill:#5B4852;" d="M134.455,114.037c-5.014,11.246-15.99,4.842-15.99,4.842s-7.198,6.743-18.263,5.668
						c-11.065-1.076-16.829-14.341-3.359-19.954C110.313,98.98,141.506,98.226,134.455,114.037z"/>
				</g>
			</g>
		</g>
		<g>
			
				<ellipse transform="matrix(0.7071 -0.7071 0.7071 0.7071 -161.8019 306.8305)" style="fill:#F4DDD4;" cx="289.476" cy="348.727" rx="76.706" ry="76.706"/>
			<g>
				<defs>
					
						<ellipse id="SVGID_00000100360056853702359380000001003276503079260859_" transform="matrix(0.7071 -0.7071 0.7071 0.7071 -161.8019 306.8305)" cx="289.476" cy="348.727" rx="76.706" ry="76.706"/>
				</defs>
				<clipPath id="SVGID_00000168074425986406715040000015058208646288247183_">
					<use xlink:href="#SVGID_00000100360056853702359380000001003276503079260859_"  style="overflow:visible;"/>
				</clipPath>
				<g style="clip-path:url(#SVGID_00000168074425986406715040000015058208646288247183_);">
					<path style="fill:#5B4852;" d="M279.959,291.971c-27.714,2.593-27.198,26.439-23.106,43.941
						c4.092,17.502,5.439,34.315,5.439,34.315s29.223,5.454,53.348-2.04c0,0,13.013-46.257,3.29-63.758
						C309.207,286.926,283.69,286.461,279.959,291.971z"/>
					<g>
						<path style="fill:#D66572;" d="M349.219,425.434H229.733c0,0,5.573-21.509,13.5-34.251
							c7.927-12.75,37.026-17.086,37.026-17.086l9.216,1.543l9.216-1.543c0,0,29.109,4.336,37.036,17.086
							C343.655,403.925,349.219,425.434,349.219,425.434z"/>
						<path style="fill:#FFFFFF;" d="M279.168,374.097l-13.199,2.475c0,0,3.043,14.929,15.111,22.391l8.194-10.04v-10.771
							L279.168,374.097z"/>
						<path style="fill:#FFFFFF;" d="M298.871,374.097l13.199,2.475c0,0-3.043,14.929-15.111,22.391l-8.194-10.04v-10.771
							L298.871,374.097z"/>
						<g>
							<path style="fill:#F1B69A;" d="M289.254,385.479L289.254,385.479c-5,0-9.052-4.053-9.052-9.052v-17.293h18.105v17.293
								C298.306,381.426,294.254,385.479,289.254,385.479z"/>
							<path style="fill:#150A08;" d="M298.307,357.133v10.617c0,0-3.04,5.286-9.053,5.286c-4.831,0-9.051-4.583-9.051-4.583v-11.32
								H298.307z"/>
							<g>
								<path style="fill:#F1B69A;" d="M263.926,338.546c-4.895-7.436-10.573-2.659-10.573,2.577c0,7.581,8.223,14.11,12.922,8.669
									C270.975,344.35,263.926,338.546,263.926,338.546z"/>
								<path style="fill:none;stroke:#E07E61;stroke-linecap:round;stroke-miterlimit:10;" d="M262.856,341.982
									c-3.046-5.694-7.257-0.381-5.649,1.728"/>
								<path style="fill:#F1B69A;" d="M312.827,338.546c4.895-7.436,10.573-2.659,10.573,2.577c0,7.581-8.223,14.11-12.922,8.669
									C305.779,344.35,312.827,338.546,312.827,338.546z"/>
								<path style="fill:none;stroke:#E07E61;stroke-linecap:round;stroke-miterlimit:10;" d="M313.897,341.982
									c3.046-5.694,7.257-0.381,5.649,1.728"/>
							</g>
							<path style="fill:#F1B69A;" d="M288.354,367.75c-19.343-0.008-30.781-21.145-26.259-42.848
								c3.725-17.884,48.838-17.877,52.563,0C319.179,346.606,307.706,367.758,288.354,367.75z"/>
							<path style="opacity:0.5;fill:#F1B69A;" d="M285.785,346.024c1.991,0.95,6.475-1.157,6.568,0
								c0.093,1.157-2.38,2.181-3.284,2.181C288.164,348.205,285.785,346.024,285.785,346.024z"/>
							<path style="fill:none;stroke:#E07E61;stroke-linecap:round;stroke-miterlimit:10;" d="M285.848,340.192
								c-2.823,6.102,1.398,7.286,2.528,7.433"/>
							<path style="fill:#150A08;" d="M280.727,323.562c-1.209-2.699-8.292-1.465-9.293,0.457c-1.001,1.922,2.313,2.461,4.773,2.341
								C278.667,326.238,281.496,325.28,280.727,323.562z"/>
							<path style="fill:#150A08;" d="M296.026,323.562c1.209-2.699,8.292-1.465,9.293,0.457c1.001,1.922-2.313,2.461-4.773,2.341
								C298.087,326.238,295.257,325.28,296.026,323.562z"/>
							<path style="fill:#150A08;" d="M275.609,333.966c0,1.075,0.871,1.946,1.946,1.946c1.075,0,1.946-0.871,1.946-1.946
								c0-1.075-0.871-1.946-1.946-1.946C276.481,332.02,275.609,332.891,275.609,333.966z"/>
							<path style="fill:#150A08;" d="M301.144,333.966c0,1.075-0.871,1.946-1.946,1.946c-1.075,0-1.946-0.871-1.946-1.946
								c0-1.075,0.871-1.946,1.946-1.946C300.273,332.02,301.144,332.891,301.144,333.966z"/>
						</g>
						<path style="fill:none;stroke:#150A08;stroke-linecap:round;stroke-miterlimit:10;" d="M281.587,351.439
							c7.467,1.435,13.388,0.239,15.779-1.673"/>
						<path style="opacity:0.5;fill:#F1B69A;" d="M286.597,355.119c2.708,0.007,6.591-1.401,7.192,0
							c0.601,1.402-2.705,4.205-4.756,4.005C286.982,358.924,283.505,355.111,286.597,355.119z"/>
					</g>
					<path style="fill:#5B4852;" d="M264.565,310.62c-3.923,4.764-4.871,17.453-4.871,17.453h8.985l4.452-14.069v13.386
						c0,0,4.452,1.217,10.151,0.683l3.192-10.701l4.822,10.018c0,0,6.589,1.81,10.507,0l-1.264-10.018l4.803,10.018
						c0,0,7.631,1.039,11.396-1.098c0,0,3.052-12.288-9.77-18.699S272.045,301.537,264.565,310.62z"/>
				</g>
			</g>
		</g>
		<g>
			
				<ellipse transform="matrix(0.7071 -0.7071 0.7071 0.7071 -211.9006 185.8815)" style="fill:#F4DDD4;" cx="118.428" cy="348.727" rx="76.706" ry="76.706"/>
			<g>
				<defs>
					
						<ellipse id="SVGID_00000088842392676285717370000007023651553399464836_" transform="matrix(0.7071 -0.7071 0.7071 0.7071 -211.9006 185.8815)" cx="118.428" cy="348.727" rx="76.706" ry="76.706"/>
				</defs>
				<clipPath id="SVGID_00000020381320715609534380000003463377988079578786_">
					<use xlink:href="#SVGID_00000088842392676285717370000007023651553399464836_"  style="overflow:visible;"/>
				</clipPath>
				<g style="clip-path:url(#SVGID_00000020381320715609534380000003463377988079578786_);">
					<path style="fill:#D76A40;" d="M92.642,305.074c0.484-1.142-6.244,0.977-6.816,1.249c-3.331,1.581-5.896,3.92-7.331,7.376
						c-1.389,3.345-1.632,7.052-1.55,10.673c0.255,11.141,8.668,25.186,0.693,35.119c-4.119,5.13-11.337,6.398-16.785,10.087
						c-10.375,7.025-12.472,22.653-6.459,33.645c6.013,10.992,18.289,17.484,30.683,19.323c12.394,1.839,25.014-0.363,37.235-3.129
						c8.49-1.921,17.174-4.238,24.088-9.527c16.296-12.465,8.7-28.079,1.222-42.678c-4.793-9.357,3.805-13.762,7.558-25.376
						c6.753-20.897-2.92-41.177-21.392-49.187C103.52,279.526,92.703,304.93,92.642,305.074z"/>
					<g>
						<g>
							<path style="fill:#5B4850;" d="M178.171,425.434H58.686c0,0,5.573-21.509,13.5-34.251
								c7.927-12.75,37.026-17.086,37.026-17.086l9.216,1.543l9.216-1.543c0,0,29.109,4.336,37.036,17.086
								C172.608,403.925,178.171,425.434,178.171,425.434z"/>
							<path style="fill:#F1B69A;" d="M91.809,378.35c13.994,20.001,40.46,17.45,53.247,0
								C145.055,378.35,119.403,366.405,91.809,378.35z"/>
							<g>
								<path style="fill:#F1B69A;" d="M118.206,385.479L118.206,385.479c-5,0-9.052-4.053-9.052-9.052v-17.293h18.105v17.293
									C127.259,381.426,123.206,385.479,118.206,385.479z"/>
								<path style="fill:#150A08;" d="M127.259,357.133v10.617c0,0-3.04,5.286-9.053,5.286c-4.831,0-9.051-4.583-9.051-4.583
									v-11.32H127.259z"/>
								<g>
									<path style="fill:#F1B69A;" d="M92.879,338.546c-4.895-7.436-10.572-2.659-10.573,2.577c0,7.581,8.223,14.11,12.922,8.669
										C99.927,344.35,92.879,338.546,92.879,338.546z"/>
									<path style="fill:none;stroke:#E07E61;stroke-linecap:round;stroke-miterlimit:10;" d="M91.809,341.982
										c-3.046-5.694-7.257-0.381-5.649,1.728"/>
									<path style="fill:#F1B69A;" d="M141.779,338.546c4.895-7.436,10.572-2.659,10.572,2.577c0,7.581-8.223,14.11-12.922,8.669
										C134.731,344.35,141.779,338.546,141.779,338.546z"/>
									<path style="fill:none;stroke:#E07E61;stroke-linecap:round;stroke-miterlimit:10;" d="M142.85,341.982
										c3.046-5.694,7.257-0.381,5.649,1.728"/>
								</g>
								<path style="fill:#F1B69A;" d="M117.306,367.75c-19.343-0.008-30.781-21.145-26.259-42.848
									c3.725-17.884,48.838-17.877,52.563,0C148.132,346.606,136.658,367.758,117.306,367.75z"/>
								<path style="opacity:0.5;fill:#F1B69A;" d="M114.737,346.024c1.991,0.95,6.475-1.157,6.568,0
									c0.093,1.157-2.38,2.181-3.284,2.181C117.117,348.205,114.737,346.024,114.737,346.024z"/>
								<path style="fill:none;stroke:#E07E61;stroke-linecap:round;stroke-miterlimit:10;" d="M114.801,340.192
									c-2.823,6.102,1.398,7.286,2.528,7.433"/>
								<path style="fill:#D76A40;" d="M109.679,323.562c-1.209-2.699-8.292-1.465-9.293,0.457
									c-1.002,1.922,2.313,2.461,4.773,2.341C107.619,326.238,110.449,325.28,109.679,323.562z"/>
								<path style="fill:#150A08;" d="M124.979,323.562c1.209-2.699,8.292-1.465,9.293,0.457c1.001,1.922-2.313,2.461-4.773,2.341
									C127.039,326.238,124.209,325.28,124.979,323.562z"/>
								<path style="fill:#150A08;" d="M104.562,333.966c0,1.075,0.871,1.946,1.946,1.946c1.075,0,1.946-0.871,1.946-1.946
									c0-1.075-0.871-1.946-1.946-1.946C105.433,332.02,104.562,332.891,104.562,333.966z"/>
								<path style="fill:#150A08;" d="M130.096,333.966c0,1.075-0.871,1.946-1.946,1.946c-1.075,0-1.946-0.871-1.946-1.946
									c0-1.075,0.871-1.946,1.946-1.946C129.225,332.02,130.096,332.891,130.096,333.966z"/>
								<path style="fill:#FFFFFF;" d="M110.089,350.841c7.404,0.796,12.354-0.018,15.867,0.102c0,0-4.435,6.264-9.649,5.018
									S110.089,350.841,110.089,350.841z"/>
								<path style="opacity:0.5;fill:#F1B69A;" d="M115.207,357.782c2.708,0.007,6.591-1.401,7.192,0
									c0.601,1.402-2.705,4.205-4.756,4.005C115.592,361.587,112.115,357.774,115.207,357.782z"/>
							</g>
						</g>
					</g>
					<path style="fill:#D76A40;" d="M104.562,305.83c-0.035,18.222,34.578,26.977,41.289,22.669
						c6.711-4.308,1.479-19.77-16.198-23.958C111.975,300.354,104.572,300.404,104.562,305.83z"/>
					<path style="fill:#D76A40;" d="M104.637,305.701c4.411,8.805-7.709,28.238-14.596,26.951c-6.886-1.287-6.886-8.9-1.515-17.926
						C93.898,305.701,102.544,301.523,104.637,305.701z"/>
				</g>
			</g>
		</g>
		<g>
			
				<ellipse transform="matrix(0.7071 -0.7071 0.7071 0.7071 -61.6045 548.7284)" style="fill:#F4DDD4;" cx="631.571" cy="348.727" rx="76.706" ry="76.706"/>
			<g>
				<defs>
					
						<ellipse id="SVGID_00000057135059501146073300000017209194263313255555_" transform="matrix(0.7071 -0.7071 0.7071 0.7071 -61.6045 548.7284)" cx="631.571" cy="348.727" rx="76.706" ry="76.706"/>
				</defs>
				<clipPath id="SVGID_00000171718976088865126750000006407785905952694683_">
					<use xlink:href="#SVGID_00000057135059501146073300000017209194263313255555_"  style="overflow:visible;"/>
				</clipPath>
				<g style="clip-path:url(#SVGID_00000171718976088865126750000006407785905952694683_);">
					<path style="fill:#D88D48;" d="M665.055,373.747c-9.681,5.836-24.266,13.514-33.814,13.388c-0.001,0-0.002,0.001-0.002,0.002
						l0.214,1.785c-9.861,0.131-26.36-8.798-36.924-15.218c-4.133-2.512-4.901-7.884-1.876-11.592
						c2.055-2.519,3.138-6.053,0.959-10.811c-5.353-11.71-6.691-28.821,0.98-46.146c7.07-15.937,25.542-22.052,35.226-14.814
						c9.694-7.228,28.145-1.113,35.204,14.814c7.682,17.325,6.343,34.436,0.98,46.146c-2.175,4.757-1.09,8.291,0.964,10.811
						C670.006,365.84,669.217,371.237,665.055,373.747z"/>
					<g>
						<g>
							<path style="fill:#9FC9C1;" d="M691.314,425.434H571.829c0,0,5.573-21.509,13.5-34.251
								c7.927-12.75,37.026-17.086,37.026-17.086l9.216,1.543l9.216-1.543c0,0,29.109,4.336,37.036,17.086
								C685.751,403.925,691.314,425.434,691.314,425.434z"/>
							<path style="fill:#FFFFFF;" d="M622.355,374.097c-12.097,2.716-17.679,11.523-6.787,13.84c0,0-4.166,7.684,6.028,11.026
								c10.194,3.342,12.854-5.233,12.854-5.233s6.011,8.843,13.147,5.233c7.137-3.61,7.832-10.38,1.111-13.484
								c0,0,3.94,2.458,5.794-1.25c1.854-3.708-5.441-9.372-16.51-10.132C626.924,373.336,622.355,374.097,622.355,374.097z"/>
							<g>
								<path style="fill:#F1B69A;" d="M631.349,385.479L631.349,385.479c-5,0-9.052-4.053-9.052-9.052v-17.293h18.105v17.293
									C640.402,381.426,636.349,385.479,631.349,385.479z"/>
								<path style="fill:#150A08;" d="M640.402,357.133v10.617c0,0-3.04,5.286-9.053,5.286c-4.831,0-9.051-4.583-9.051-4.583
									v-11.32H640.402z"/>
								<g>
									<path style="fill:#F1B69A;" d="M606.022,338.546c-4.895-7.436-10.573-2.659-10.573,2.577c0,7.581,8.223,14.11,12.922,8.669
										C613.07,344.35,606.022,338.546,606.022,338.546z"/>
									<path style="fill:none;stroke:#E07E61;stroke-linecap:round;stroke-miterlimit:10;" d="M604.951,341.982
										c-3.046-5.694-7.257-0.381-5.649,1.728"/>
									<path style="fill:#F1B69A;" d="M654.922,338.546c4.895-7.436,10.572-2.659,10.572,2.577c0,7.581-8.223,14.11-12.922,8.669
										C647.874,344.35,654.922,338.546,654.922,338.546z"/>
									<path style="fill:none;stroke:#E07E61;stroke-linecap:round;stroke-miterlimit:10;" d="M655.992,341.982
										c3.046-5.694,7.257-0.381,5.649,1.728"/>
								</g>
								<path style="fill:#F1B69A;" d="M630.449,367.75c-19.343-0.008-30.781-21.145-26.259-42.848
									c3.725-17.884,48.838-17.877,52.563,0C661.275,346.606,649.801,367.758,630.449,367.75z"/>
								<path style="opacity:0.5;fill:#F1B69A;" d="M627.88,346.024c1.991,0.95,6.475-1.157,6.568,0
									c0.093,1.157-2.379,2.181-3.284,2.181C630.26,348.205,627.88,346.024,627.88,346.024z"/>
								<path style="fill:none;stroke:#E07E61;stroke-linecap:round;stroke-miterlimit:10;" d="M627.944,340.192
									c-2.823,6.102,1.398,7.286,2.528,7.433"/>
								<path style="fill:#D88D48;" d="M622.822,323.562c-1.209-2.699-8.292-1.465-9.293,0.457
									c-1.002,1.922,2.313,2.461,4.773,2.341C620.762,326.238,623.592,325.28,622.822,323.562z"/>
								<path style="fill:#D88D48;" d="M638.122,323.562c1.209-2.699,8.292-1.465,9.293,0.457c1.002,1.922-2.313,2.461-4.773,2.341
									C640.182,326.238,637.352,325.28,638.122,323.562z"/>
								<path style="fill:#150A08;" d="M617.705,333.966c0,1.075,0.871,1.946,1.946,1.946c1.075,0,1.946-0.871,1.946-1.946
									c0-1.075-0.871-1.946-1.946-1.946C618.576,332.02,617.705,332.891,617.705,333.966z"/>
								<path style="fill:#150A08;" d="M643.239,333.966c0,1.075-0.871,1.946-1.946,1.946c-1.075,0-1.946-0.871-1.946-1.946
									c0-1.075,0.871-1.946,1.946-1.946C642.368,332.02,643.239,332.891,643.239,333.966z"/>
							</g>
							<path style="fill:none;stroke:#150A08;stroke-linecap:round;stroke-miterlimit:10;" d="M623.682,351.439
								c7.467,1.435,13.388,0.239,15.779-1.673"/>
							<path style="opacity:0.5;fill:#F1B69A;" d="M628.693,355.119c2.708,0.007,6.591-1.401,7.192,0
								c0.601,1.402-2.705,4.205-4.756,4.005C629.077,358.924,625.6,355.111,628.693,355.119z"/>
						</g>
					</g>
					<path style="fill:#F1B69A;" d="M632.736,317.493c2.563-6.407,1.62-14.257-2.265-14.432s-8.875,5.719-8.875,5.719l2.085,8.713
						H632.736z"/>
					<path style="fill:#D88D48;" d="M629.106,302.892c-1.906,15.206,24.239,22.168,29.844,21.207
						c5.606-0.961,4.131-18.875-9.994-22.121C634.832,298.732,629.836,297.072,629.106,302.892z"/>
					<path style="fill:#D88D48;" d="M630.471,303.061c1.906,15.206-24.194,22-29.799,21.039c-5.605-0.961-4.131-18.875,9.994-22.121
						S629.742,297.24,630.471,303.061z"/>
				</g>
			</g>
		</g>
		<g>
			<circle style="fill:#F4DDD4;" cx="460.524" cy="345.667" r="76.706"/>
			<g>
				<defs>
					<circle id="SVGID_00000128483774220786107890000010387359930245204407_" cx="460.524" cy="345.667" r="76.706"/>
				</defs>
				<clipPath id="SVGID_00000156586113074269175720000008568318236223892373_">
					<use xlink:href="#SVGID_00000128483774220786107890000010387359930245204407_"  style="overflow:visible;"/>
				</clipPath>
				<g style="clip-path:url(#SVGID_00000156586113074269175720000008568318236223892373_);">
					<path style="fill:#D76A40;" d="M472.452,295.656c-2.906-14.827,13.465-23.835,23.288-13.215
						c9.823,10.62,2.496,18.589-7.43,19.57c-9.927,0.981-13.346-6.731-13.346-6.731L472.452,295.656z"/>
					<path style="fill:#5B4852;" d="M465.343,295.078c2.737-8.431,17.246-1.572,20.737,4.086c3.491,5.658,1.875,13.882,1.875,13.882
						L465.343,295.078z"/>
					<path style="fill:#D76A40;" d="M427.677,332.104c-4.39-29.999,16.603-40.894,34.858-40.49
						c18.256,0.404,26.886,14.93,26.886,14.93s13.062,19.382-2.93,37.167C470.5,361.495,427.677,332.104,427.677,332.104z"/>
					<g>
						<g>
							<path style="fill:#D88D48;" d="M520.267,422.373H400.781c0,0,5.573-21.509,13.5-34.251
								c7.927-12.75,37.026-17.086,37.026-17.086l9.216,1.543l9.216-1.543c0,0,29.109,4.336,37.036,17.086
								C514.703,400.864,520.267,422.373,520.267,422.373z"/>
							<path style="fill:#FFFFFF;" d="M428.522,377.529c11.234,23.138,45.35,25.308,64.011,0
								C492.533,377.529,465.324,360.139,428.522,377.529z"/>
							<g>
								<path style="fill:#F1B69A;" d="M460.302,382.418L460.302,382.418c-5,0-9.053-4.053-9.053-9.052v-17.293h18.105v17.293
									C469.354,378.366,465.301,382.418,460.302,382.418z"/>
								<path style="fill:#150A08;" d="M469.355,354.072v10.617c0,0-3.04,5.286-9.053,5.286c-4.831,0-9.051-4.583-9.051-4.583
									v-11.32H469.355z"/>
								<g>
									<path style="fill:#F1B69A;" d="M434.974,335.486c-4.895-7.436-10.572-2.659-10.572,2.577c0,7.581,8.223,14.11,12.922,8.669
										C442.022,341.29,434.974,335.486,434.974,335.486z"/>
									<path style="fill:none;stroke:#E07E61;stroke-linecap:round;stroke-miterlimit:10;" d="M433.904,338.922
										c-3.046-5.694-7.257-0.381-5.649,1.728"/>
									<path style="fill:#F1B69A;" d="M483.875,335.486c4.895-7.436,10.572-2.659,10.572,2.577c0,7.581-8.223,14.11-12.922,8.669
										C476.826,341.29,483.875,335.486,483.875,335.486z"/>
									<path style="fill:none;stroke:#E07E61;stroke-linecap:round;stroke-miterlimit:10;" d="M484.945,338.922
										c3.046-5.694,7.257-0.381,5.649,1.728"/>
								</g>
								<path style="fill:#F1B69A;" d="M459.401,364.69c-19.343-0.008-30.781-21.145-26.259-42.848
									c3.725-17.884,48.838-17.877,52.563,0C490.227,343.545,478.754,364.697,459.401,364.69z"/>
								<path style="opacity:0.5;fill:#F1B69A;" d="M456.832,342.963c1.991,0.95,6.475-1.157,6.568,0
									c0.093,1.157-2.38,2.181-3.284,2.181C459.212,345.144,456.832,342.963,456.832,342.963z"/>
								<path style="fill:none;stroke:#E07E61;stroke-linecap:round;stroke-miterlimit:10;" d="M456.896,337.131
									c-2.822,6.102,1.398,7.285,2.528,7.433"/>
								<path style="fill:#D76A40;" d="M451.775,320.501c-1.209-2.699-8.292-1.465-9.293,0.457s2.313,2.461,4.773,2.341
									C449.714,323.178,452.544,322.219,451.775,320.501z"/>
								<path style="fill:#D76A40;" d="M467.074,320.501c1.209-2.699,8.292-1.465,9.293,0.457s-2.313,2.461-4.773,2.341
									C469.134,323.178,466.305,322.219,467.074,320.501z"/>
								<path style="fill:#150A08;" d="M446.657,330.905c0,1.075,0.871,1.946,1.946,1.946c1.075,0,1.946-0.871,1.946-1.946
									s-0.871-1.946-1.946-1.946C447.528,328.959,446.657,329.83,446.657,330.905z"/>
								<path style="fill:#150A08;" d="M472.191,330.905c0,1.075-0.871,1.946-1.946,1.946c-1.075,0-1.946-0.871-1.946-1.946
									s0.871-1.946,1.946-1.946C471.32,328.959,472.191,329.83,472.191,330.905z"/>
							</g>
							<path style="fill:none;stroke:#150A08;stroke-linecap:round;stroke-miterlimit:10;" d="M452.634,348.378
								c7.468,1.435,13.388,0.239,15.779-1.673"/>
							<path style="opacity:0.5;fill:#F1B69A;" d="M457.645,352.059c2.708,0.007,6.591-1.402,7.192,0
								c0.601,1.401-2.705,4.205-4.756,4.004C458.029,355.863,454.553,352.05,457.645,352.059z"/>
						</g>
					</g>
					<path style="fill:#D76A40;" d="M463.403,303.226c-32.139,10.581-27.019,40.839-21.105,58.798l0,0
						c0,0-20.635-29.655-11.396-48.217C440.141,295.246,463.403,303.226,463.403,303.226z"/>
				</g>
			</g>
		</g>
	</g>
</g>
</svg>
